#!OML:ASF H:\Terrain\Patient Classification 1\Terrain2\Thursday\justin.ASF
:FULLY-SPECIFIED
:DEGREES
4042
root 5.53662 24.4865 -0.132508 542.578 257.851 -911.101
lowerback 11.9754 0.754626 -0.0469353
upperback 5.59136 0.827334 2.9259
thorax -0.911654 0.281171 2.96558
lowerneck -8.81069 -2.76946 -11.2291
upperneck 40.88 -6.06552 6.32075
head 16.8508 -4.07018 3.69567
rclavicle 2.24627e-014 2.78299e-015
rhumerus -41.2775 -14.1664 -71.785
rradius 29.0359
rwrist -8.05413
rhand -19.5753 12.65
rfingers 7.12502
rthumb 6.74979 -17.2225
lclavicle 2.24627e-014 2.78299e-015
lhumerus -38.1237 5.02781 77.2608
lradius 47.3998
lwrist 7.87671
lhand -16.4741 21.9876
lfingers 7.12502
lthumb 9.74278 51.7423
rfemur -23.2849 -12.9992 21.1776
rtibia 32.68
rfoot 17.7347 -5.792
rtoes 14.0855
lfemur -10.2832 -1.91829 -11.6299
ltibia 74.3374
lfoot -7.29541 -33.3899
ltoes 25.7083
4043
root 5.43141 24.3505 -0.150177 540.767 257.701 -909.158
lowerback 11.6397 0.824746 -0.313187
upperback 5.48947 0.900252 2.72922
thorax -0.841692 0.321938 2.90271
lowerneck -8.65497 -2.80516 -11.2417
upperneck 40.9427 -6.22744 6.5026
head 16.8776 -4.12553 3.75783
rclavicle 1.73937e-014 7.95139e-016
rhumerus -41.6467 -14.3096 -71.7558
rradius 29.2301
rwrist -7.50117
rhand -19.8386 12.7917
rfingers 7.12502
rthumb 6.49567 -17.0887
lclavicle 1.73937e-014 7.95139e-016
lhumerus -38.6029 5.0912 76.8561
lradius 48.22
lwrist 7.96611
lhand -16.4584 22.1798
lfingers 7.12502
lthumb 9.75788 51.9337
rfemur -22.6594 -12.6741 20.6591
rtibia 31.2993
rfoot 18.0515 -6.40541
rtoes 14.4171
lfemur -10.5979 -1.5809 -11.6932
ltibia 75.7063
lfoot -8.05247 -33.8439
ltoes 24.0272
4044
root 5.32804 24.2098 -0.164339 538.514 257.481 -906.851
lowerback 11.4933 0.910819 -0.622727
upperback 5.33777 0.994058 2.5037
thorax -0.927268 0.374554 2.83107
lowerneck -8.50256 -2.86185 -11.2369
upperneck 41.1268 -6.4628 6.7127
head 16.9858 -4.21252 3.82129
rclavicle 1.99779e-014 -6.36111e-015
rhumerus -42.0799 -14.1067 -71.8559
rradius 29.4277
rwrist -7.70966
rhand -20.1972 12.9235
rfingers 7.12502
rthumb 6.14944 -16.9672
lclavicle 1.99779e-014 -6.36111e-015
lhumerus -38.926 5.13235 76.4371
lradius 48.6507
lwrist 7.79926
lhand -16.4431 22.4885
lfingers 7.12502
lthumb 9.77268 52.2417
rfemur -21.9199 -12.3872 20.0343
rtibia 29.9658
rfoot 18.5173 -6.80283
rtoes 14.4327
lfemur -10.804 -1.4538 -11.9328
ltibia 77.1037
lfoot -8.43542 -34.3304
ltoes 23.7741
4045
root 5.21985 24.062 -0.179686 536.669 257.293 -905.103
lowerback 11.4577 0.946247 -0.937796
upperback 5.23702 1.01599 2.37914
thorax -1.01729 0.387398 2.87637
lowerneck -8.3571 -2.87507 -11.3435
upperneck 41.259 -6.53514 6.78763
head 17.0441 -4.26302 3.86842
rclavicle 2.57923e-014 -4.37326e-015
rhumerus -42.299 -13.2296 -72.1334
rradius 29.4873
rwrist -8.58353
rhand -20.1458 12.8829
rfingers 7.12502
rthumb 6.19905 -17.0064
lclavicle 2.57923e-014 -4.37326e-015
lhumerus -39.1198 5.4393 75.9809
lradius 48.7751
lwrist 7.62061
lhand -16.2971 22.5685
lfingers 7.12502
lthumb 9.91353 52.3151
rfemur -21.0391 -12.3038 19.5635
rtibia 28.7113
rfoot 18.9453 -7.06551
rtoes 14.1866
lfemur -10.8733 -1.41283 -11.997
ltibia 78.5809
lfoot -8.47766 -34.8047
ltoes 24.6743
4046
root 5.10835 23.9122 -0.201454 535.011 257.118 -903.479
lowerback 11.3031 0.960479 -1.32457
upperback 5.15373 1.00259 2.26934
thorax -1.02364 0.380708 2.98303
lowerneck -8.27823 -2.88059 -11.3335
upperneck 41.3916 -6.49752 6.58844
head 17.0851 -4.28013 3.78448
rclavicle 1.78409e-014 1.98785e-015
rhumerus -42.4637 -12.4848 -72.3608
rradius 29.5433
rwrist -9.21607
rhand -19.7145 12.5828
rfingers 7.12502
rthumb 6.61544 -17.2939
lclavicle 1.78409e-014 1.98785e-015
lhumerus -39.311 5.74363 75.4826
lradius 48.8287
lwrist 7.2917
lhand -16.6052 22.2417
lfingers 7.12502
lthumb 9.61629 52.0022
rfemur -20.174 -12.3025 19.1467
rtibia 27.3757
rfoot 19.3086 -7.35121
rtoes 14.2691
lfemur -11.0365 -1.21693 -11.9281
ltibia 80.0769
lfoot -8.44654 -35.1955
ltoes 25.2447
4047
root 4.99157 23.7631 -0.223732 534.795 256.952 -903.177
lowerback 10.9162 1.00243 -1.28737
upperback 5.07489 1.07114 2.14003
thorax -0.897021 0.420411 2.82172
lowerneck -8.12166 -2.92829 -11.1763
upperneck 41.4167 -6.601 6.5017
head 17.0619 -4.31461 3.70033
rclavicle -8.54774e-015 -3.57812e-015
rhumerus -42.7187 -12.5334 -72.4467
rradius 29.6367
rwrist -9.38772
rhand -19.436 12.2008
rfingers 7.12502
rthumb 6.88427 -17.6672
lclavicle -8.54774e-015 -3.57812e-015
lhumerus -39.4535 5.70906 75.0073
lradius 48.9668
lwrist 7.10242
lhand -17.3301 21.8076
lfingers 7.12502
lthumb 8.91679 51.5992
rfemur -19.4131 -12.2087 19.0897
rtibia 25.9373
rfoot 19.889 -7.45296
rtoes 14.4761
lfemur -11.2993 -0.861271 -11.427
ltibia 81.5275
lfoot -7.52552 -35.9262
ltoes 27.8392
4048
root 4.87202 23.6099 -0.239372 535.564 256.795 -904.038
lowerback 10.6603 0.974595 -0.937902
upperback 5.04352 1.07211 2.1291
thorax -0.784522 0.42697 2.61488
lowerneck -7.99031 -2.92496 -11.256
upperneck 41.4237 -6.66181 6.6589
head 17.0528 -4.33867 3.77931
rclavicle 1.97294e-014 1.63003e-014
rhumerus -42.9648 -12.4673 -72.4788
rradius 29.8135
rwrist -9.62387
rhand -19.6946 11.7583
rfingers 7.12502
rthumb 6.63467 -18.1178
lclavicle 1.97294e-014 1.63003e-014
lhumerus -39.751 5.5969 74.7151
lradius 49.3024
lwrist 7.76731
lhand -17.6058 21.6122
lfingers 7.12502
lthumb 8.65072 51.4149
rfemur -18.4764 -12.0005 19.2446
rtibia 24.4972
rfoot 20.4118 -8.01724
rtoes 15.6049
lfemur -11.3254 -0.520639 -10.6151
ltibia 82.967
lfoot -6.45647 -36.9478
ltoes 30.7053
4049
root 4.75496 23.4494 -0.25373 535.781 256.588 -904.437
lowerback 10.5751 0.939596 -0.700902
upperback 5.03039 1.04917 2.0971
thorax -0.7461 0.419902 2.45108
lowerneck -8.00448 -2.97815 -11.2314
upperneck 41.4919 -6.75271 6.64335
head 17.1074 -4.37765 3.75383
rclavicle 5.41688e-015 -8.74653e-015
rhumerus -43.1893 -12.3689 -72.4409
rradius 29.9901
rwrist -9.72555
rhand -19.8743 11.3969
rfingers 7.12502
rthumb 6.46115 -18.4846
lclavicle 5.41688e-015 -8.74653e-015
lhumerus -40.027 5.59831 74.4019
lradius 49.6233
lwrist 8.2911
lhand -16.025 21.963
lfingers 7.12502
lthumb 10.1761 51.6969
rfemur -17.4056 -11.9676 19.2567
rtibia 23.0421
rfoot 20.8581 -8.67324
rtoes 16.5793
lfemur -11.2992 -0.350782 -9.96979
ltibia 84.4706
lfoot -6.00803 -37.7751
ltoes 31.904
4050
root 4.63526 23.2823 -0.274157 535.829 256.318 -904.537
lowerback 10.3521 0.902291 -0.612086
upperback 4.98576 1.01193 2.0453
thorax -0.666949 0.405086 2.35302
lowerneck -7.89497 -3.05054 -11.1466
upperneck 41.4472 -6.88326 6.6136
head 17.0669 -4.42331 3.70219
rclavicle 8.05078e-015 2.78299e-015
rhumerus -43.3664 -12.295 -72.4439
rradius 30.0979
rwrist -9.80016
rhand -19.4924 11.2917
rfingers 7.12502
rthumb 6.82981 -18.5782
lclavicle 8.05078e-015 2.78299e-015
lhumerus -40.2412 6.05584 73.9045
lradius 49.7876
lwrist 8.08121
lhand -15.991 21.7961
lfingers 7.12502
lthumb 10.2088 51.5284
rfemur -16.374 -12.1196 19.2778
rtibia 21.532
rfoot 21.4666 -9.01398
rtoes 17.2518
lfemur -11.4715 -0.217763 -9.35352
ltibia 86.0122
lfoot -5.92433 -38.4249
ltoes 31.9958
4051
root 4.51222 23.1112 -0.299987 536.265 256.009 -905.013
lowerback 10.1104 0.777755 -0.568097
upperback 4.9047 0.856922 2.09137
thorax -0.612139 0.330216 2.39408
lowerneck -7.78382 -3.00067 -11.1752
upperneck 41.4357 -6.83104 6.64954
head 17.0272 -4.40713 3.73343
rclavicle 1.86858e-014 -4.01545e-014
rhumerus -43.5742 -11.8184 -72.5369
rradius 30.2659
rwrist -10.1064
rhand -19.0532 11.3058
rfingers 7.12502
rthumb 7.25381 -18.5499
lclavicle 1.86858e-014 -4.01545e-014
lhumerus -40.5455 6.66369 73.3626
lradius 49.8623
lwrist 7.94381
lhand -15.8293 21.467
lfingers 7.12502
lthumb 10.3648 51.1916
rfemur -15.3154 -11.9342 19.3678
rtibia 20.0135
rfoot 22.186 -9.58139
rtoes 18.4227
lfemur -11.6443 -0.0384123 -8.5305
ltibia 87.51
lfoot -5.65647 -39.1449
ltoes 32.3092
4052
root 4.38813 22.9388 -0.323855 535.888 255.708 -904.764
lowerback 9.99723 0.716073 -0.651434
upperback 4.84744 0.772246 2.11966
thorax -0.607225 0.288289 2.4798
lowerneck -7.74574 -2.96156 -11.4099
upperneck 41.5011 -6.8098 6.84599
head 17.0749 -4.4175 3.87353
rclavicle 6.16232e-015 -1.70955e-014
rhumerus -43.8985 -11.3994 -72.5183
rradius 30.5845
rwrist -10.8845
rhand -18.9912 11.3156
rfingers 7.12502
rthumb 7.31363 -18.538
lclavicle 6.16232e-015 -1.70955e-014
lhumerus -40.7599 6.86815 73.0463
lradius 49.9061
lwrist 8.0516
lhand -16.9325 21.6898
lfingers 7.12502
lthumb 9.3005 51.4647
rfemur -14.168 -11.497 19.1733
rtibia 18.5377
rfoot 22.9402 -10.3235
rtoes 19.8436
lfemur -11.6103 0.0688507 -7.91714
ltibia 88.9386
lfoot -5.02584 -39.8316
ltoes 33.3171
4053
root 4.26311 22.77 -0.346879 534.464 255.442 -903.442
lowerback 9.91494 0.752394 -0.968877
upperback 4.80173 0.796904 2.06933
thorax -0.614231 0.29882 2.60446
lowerneck -7.7333 -3.00104 -11.678
upperneck 41.5987 -6.8986 7.03386
head 17.1674 -4.47921 3.99874
rclavicle -3.66261e-014 -1.19271e-015
rhumerus -44.2291 -10.9705 -72.566
rradius 31.0253
rwrist -12.419
rhand -19.4385 11.2393
rfingers 7.12502
rthumb 6.88182 -18.6289
lclavicle -3.66261e-014 -1.19271e-015
lhumerus -40.9025 6.98864 72.878
lradius 49.9841
lwrist 8.16012
lhand -16.8229 22.1369
lfingers 7.12502
lthumb 9.40618 51.907
rfemur -13.0135 -11.2648 18.7231
rtibia 17.0381
rfoot 23.8093 -10.9365
rtoes 20.3997
lfemur -11.5682 0.0985215 -7.65626
ltibia 90.3451
lfoot -5.42269 -40.2612
ltoes 31.9259
4054
root 4.13684 22.5998 -0.374035 534.143 255.124 -903.103
lowerback 9.70455 0.737631 -0.949637
upperback 4.73206 0.784474 1.93807
thorax -0.569106 0.297271 2.45963
lowerneck -7.83469 -3.07642 -11.4011
upperneck 41.7249 -7.01896 6.87009
head 17.2609 -4.50769 3.8537
rclavicle 4.4975e-014 2.78299e-015
rhumerus -44.5302 -10.8271 -72.6669
rradius 31.2956
rwrist -12.8622
rhand -19.6467 11.0057
rfingers 7.12502
rthumb 6.68085 -18.8689
lclavicle 4.4975e-014 2.78299e-015
lhumerus -41.0702 7.00116 72.4746
lradius 50.1789
lwrist 8.21578
lhand -15.9919 22.4133
lfingers 7.12502
lthumb 10.2079 52.1456
rfemur -11.9415 -11.2741 18.6494
rtibia 15.4199
rfoot 24.9034 -11.2769
rtoes 19.6862
lfemur -11.8149 0.0761062 -7.0354
ltibia 91.8061
lfoot -5.73759 -40.7057
ltoes 30.285
